<?xml version="1.0" standalone="no"?>
<!DOCTYPE svg PUBLIC "-//W3C//DTD SVG 20010904//EN"
 "http://www.w3.org/TR/2001/REC-SVG-20010904/DTD/svg10.dtd">
<svg version="1.0" xmlns="http://www.w3.org/2000/svg"
 width="256.000000pt" height="256.000000pt" viewBox="0 0 256.000000 256.000000"
 preserveAspectRatio="xMidYMid meet">
<metadata>
Created by potrace 1.14, written by Peter Selinger 2001-2017
</metadata>
<g transform="translate(0.000000,256.000000) scale(0.100000,-0.100000)"
fill="#000000" stroke="none">
<path d="M1094 2549 c-18 -5 -45 -24 -61 -42 -25 -29 -32 -50 -47 -143 -28
-172 -32 -177 -184 -263 -116 -66 -140 -67 -280 -12 -123 49 -176 53 -219 17
-36 -30 -200 -300 -209 -342 -10 -51 20 -96 118 -180 49 -43 96 -90 104 -105
18 -36 20 -354 3 -393 -7 -14 -56 -64 -110 -111 -102 -89 -127 -129 -114 -183
3 -15 47 -96 97 -179 82 -137 96 -155 135 -174 51 -25 58 -23 200 32 114 44
162 48 213 19 19 -11 64 -35 100 -54 85 -45 111 -74 127 -144 l13 -57 -5 55
c-3 30 -5 138 -5 240 l0 185 -48 30 c-117 74 -230 232 -267 375 -22 84 -22
234 0 319 31 122 118 261 209 335 44 37 88 47 103 24 4 -7 10 -127 13 -265 l5
-253 30 -29 c51 -50 205 -133 255 -138 41 -4 56 2 155 59 162 93 155 77 155
374 0 236 1 243 21 258 25 17 41 13 92 -27 89 -69 185 -229 213 -355 21 -97
15 -252 -14 -342 -42 -128 -146 -263 -259 -337 l-53 -34 1 -242 c1 -214 2
-236 13 -186 16 75 37 104 95 133 26 14 75 41 107 60 39 24 71 36 96 36 20 0
89 -21 154 -46 124 -48 158 -51 210 -17 29 18 202 302 210 343 12 57 -4 82
-119 192 l-112 107 0 191 0 192 112 106 c91 88 113 114 118 144 9 51 4 64 -99
232 -82 134 -95 151 -134 168 -51 23 -59 22 -199 -33 -116 -45 -172 -50 -218
-18 -16 11 -60 35 -96 54 -37 19 -78 48 -92 64 -27 32 -27 33 -53 181 -18 105
-39 150 -81 170 -34 17 -350 24 -399 9z"/>
<path d="M1027 669 c12 -13 26 -18 33 -14 9 6 6 12 -11 21 -36 20 -46 17 -22
-7z"/>
</g>
</svg>
